#!OML:ASF F:\VICON\USERDATA\INSTALL\Justin_Nancy\Justin_Nancy.ASF
:FULLY-SPECIFIED
:DEGREES
146
root 0.0109545 17.7511 27.0415 4.96851 -8.5457 2.88876
lowerback 8.42997 -2.41817 -4.31726
upperback -0.31874 -3.54756 2.13542
thorax -4.66266 -1.62811 5.09019
lowerneck -22.6428 -2.92308 -8.55278
upperneck 11.1702 -2.5215 7.0743
head 7.29636 -0.905557 3.41487
rclavicle -2.87244e-014 -1.59028e-015
rhumerus -60.3748 4.70041 -90.3006
rradius 108.948
rwrist -7.82098
rhand -14.8468 27.0559
rfingers 7.12502
rthumb 11.3125 -2.61903
lclavicle -2.87244e-014 -1.59028e-015
lhumerus -41.3305 -9.81519 86.0969
lradius 108.383
lwrist 27.0602
lhand -18.4164 8.67578
lfingers 7.12502
lthumb 7.86845 38.5094
rfemur -31.9374 6.13739 19.3956
rtibia 22.2938
rfoot 7.58827 0.863051
rtoes -14.8532
lfemur 12.9416 -6.00585 -30.083
ltibia 45.4193
lfoot 19.4631 -7.57905
ltoes -2.90356
147
root 0.00285804 17.6382 27.461 4.33669 -8.57719 2.73396
lowerback 8.88575 -2.34779 -4.0356
upperback -0.126246 -3.43645 2.1935
thorax -4.74245 -1.58002 4.99988
lowerneck -22.3199 -2.93437 -8.7644
upperneck 11.0279 -2.48794 7.03849
head 7.19652 -0.90739 3.43923
rclavicle -1.19271e-015 -7.15625e-015
rhumerus -59.5006 4.69416 -90.2184
rradius 108.814
rwrist -7.61623
rhand -15.1248 27.0827
rfingers 7.12502
rthumb 11.0444 -2.60673
lclavicle -1.19271e-015 -7.15625e-015
lhumerus -41.2904 -9.64336 86.3971
lradius 107.489
lwrist 26.7817
lhand -18.7735 8.94942
lfingers 7.12502
lthumb 7.52377 38.7956
rfemur -31.1751 5.20694 20.0913
rtibia 23.7401
rfoot 7.93354 2.06328
rtoes -10.3281
lfemur 12.2991 -5.41462 -29.6925
ltibia 49.1103
lfoot 20.1655 -9.27904
ltoes -1.00815
148
root -0.00795063 17.5147 27.8747 3.815 -8.57903 2.56005
lowerback 9.188 -2.2911 -3.74306
upperback 0.092516 -3.33642 2.22763
thorax -4.70815 -1.54203 4.86812
lowerneck -22.1119 -2.95291 -8.82885
upperneck 10.9152 -2.4793 6.8719
head 7.12311 -0.924894 3.39303
rclavicle 9.40251e-014 -1.35174e-014
rhumerus -58.5642 4.79365 -90.218
rradius 108.784
rwrist -7.72368
rhand -15.2358 27.0707
rfingers 7.12502
rthumb 10.9373 -2.62437
lclavicle 9.40251e-014 -1.35174e-014
lhumerus -41.2276 -9.33255 86.5253
lradius 106.749
lwrist 26.8842
lhand -18.8036 9.19328
lfingers 7.12502
lthumb 7.49469 39.0405
rfemur -30.6425 4.39673 20.7396
rtibia 25.7439
rfoot 6.73354 4.05833
rtoes -2.4373
lfemur 11.3277 -4.83216 -29.1767
ltibia 52.9962
lfoot 20.9123 -10.3729
ltoes 0.521069
149
root -0.0279127 17.3881 28.2853 3.37402 -8.69572 2.24988
lowerback 9.21834 -2.20855 -3.18199
upperback 0.458448 -3.17306 2.08344
thorax -4.3975 -1.48978 4.36777
lowerneck -22.0771 -2.99253 -8.65441
upperneck 10.7568 -2.58304 6.87779
head 7.0719 -0.96601 3.35209
rclavicle 7.05686e-015 1.51076e-014
rhumerus -57.3202 4.73724 -90.5684
rradius 108.747
rwrist -7.89458
rhand -15.3246 26.8685
rfingers 7.12502
rthumb 10.8516 -2.83109
lclavicle 7.05686e-015 1.51076e-014
lhumerus -40.9376 -9.0862 86.2901
lradius 106.019
lwrist 26.9518
lhand -18.8341 9.07796
lfingers 7.12502
lthumb 7.46531 38.9262
rfemur -30.2276 4.05703 21.4307
rtibia 28.3104
rfoot 3.35566 5.84526
rtoes 2.68602
lfemur 10.1285 -4.04278 -28.3348
ltibia 57.0101
lfoot 21.7129 -10.8501
ltoes 3.42088
150
root -0.0492539 17.2484 28.6898 2.89345 -8.67796 2.12753
lowerback 10.6217 -1.98575 -3.7412
upperback -0.0796408 -2.94724 2.68701
thorax -5.71438 -1.30775 5.39381
lowerneck -21.6683 -3.02288 -9.29366
upperneck 11.3722 -2.4333 6.52761
head 7.19842 -0.967269 3.36225
rclavicle 3.47873e-015 1.59028e-015
rhumerus -57.3629 5.32351 -89.8103
rradius 108.831
rwrist -8.35428
rhand -15.3892 26.5391
rfingers 7.12502
rthumb 10.7894 -3.16378
lclavicle 3.47873e-015 1.59028e-015
lhumerus -41.9979 -8.34263 87.6389
lradius 105.364
lwrist 26.5673
lhand -19.1685 9.11023
lfingers 7.12502
lthumb 7.14248 38.9697
rfemur -29.7218 3.7855 21.8365
rtibia 31.186
rfoot -0.749597 5.77071
rtoes 2.69662
lfemur 8.88583 -3.27123 -27.5596
ltibia 61.0813
lfoot 22.3821 -11.0262
ltoes 5.96881
